<?xml version="1.0" standalone="no"?>
<!DOCTYPE svg PUBLIC "-//W3C//DTD SVG 20010904//EN"
 "http://www.w3.org/TR/2001/REC-SVG-20010904/DTD/svg10.dtd">
<svg version="1.0" xmlns="http://www.w3.org/2000/svg"
 width="225.000000pt" height="225.000000pt" viewBox="0 0 225.000000 225.000000"
 preserveAspectRatio="xMidYMid meet">
<metadata>
Created by potrace 1.15, written by Peter Selinger 2001-2017
</metadata>
<g transform="translate(0.000000,225.000000) scale(0.100000,-0.100000)"
fill="#000000" stroke="none">
<path d="M420 2239 c-36 -14 -368 -347 -391 -392 -28 -53 -34 -121 -19 -219
34 -238 173 -520 387 -788 84 -105 309 -333 423 -427 256 -213 581 -373 819
-403 101 -13 155 -9 205 16 39 20 372 349 393 388 19 36 10 86 -20 114 -39 37
-499 304 -533 309 -56 9 -95 -13 -184 -102 -51 -52 -93 -85 -105 -85 -35 1
-127 44 -210 99 -113 76 -367 331 -438 442 -55 85 -97 174 -97 207 0 10 34 51
75 92 79 78 101 120 92 174 -6 38 -260 522 -290 553 -26 27 -72 36 -107 22z"/>
</g>
</svg>
